HIERARCHY
ROOT Hips
{
	OFFSET 0 0 0
	CHANNELS 6 Xposition Yposition Zposition Yrotation Xrotation Zrotation
	JOINT Spine
	{
		OFFSET -0 8.00685 -2.55218
		CHANNELS 3 Yrotation Xrotation Zrotation
		JOINT Spine1
		{
			OFFSET -0 7.45793 0
			CHANNELS 3 Yrotation Xrotation Zrotation
			JOINT Spine2
			{
				OFFSET -0 7.45793 0
				CHANNELS 3 Yrotation Xrotation Zrotation
				JOINT Spine3
				{
					OFFSET -0 7.45793 0
					CHANNELS 3 Yrotation Xrotation Zrotation
					JOINT Neck
					{
						OFFSET -0 14.9948 3.55218
						CHANNELS 3 Yrotation Xrotation Zrotation
						JOINT Head
						{
							OFFSET -0 10.0086 0
							CHANNELS 3 Yrotation Xrotation Zrotation
							End Site
							{
								OFFSET 0 15 0
							}
						}
					}
					JOINT LeftShoulder
					{
						OFFSET 1.66809 3.17829 3.33619
						CHANNELS 3 Yrotation Xrotation Zrotation
						JOINT LeftArm
						{
							OFFSET 18.653 0 0
							CHANNELS 3 Yrotation Xrotation Zrotation
							JOINT LeftForeArm
							{
								OFFSET 22.9554 0 0
								CHANNELS 3 Yrotation Xrotation Zrotation
								JOINT LeftHand
								{
									OFFSET 21.8677 0 0
									CHANNELS 3 Yrotation Xrotation Zrotation
									JOINT LeftHandThumb1
									{
										OFFSET 4.74436 0 2.66649
										CHANNELS 3 Yrotation Xrotation Zrotation
										JOINT LeftHandThumb2
										{
											OFFSET 3 0 1
											CHANNELS 3 Yrotation Xrotation Zrotation
											JOINT LeftHandThumb3
											{
												OFFSET 2.1 0 0
												CHANNELS 3 Yrotation Xrotation Zrotation
												JOINT LeftHandThumb4
												{
													OFFSET 1.305 0 0
													CHANNELS 3 Yrotation Xrotation Zrotation
													End Site
													{
														OFFSET -0 0 0
													}
												}
											}
										}
									}
									JOINT LeftHandIndex1
									{
										OFFSET 8.93865 0 3.46871
										CHANNELS 3 Yrotation Xrotation Zrotation
										JOINT LeftHandIndex2
										{
											OFFSET 3.5 0 0
											CHANNELS 3 Yrotation Xrotation Zrotation
											JOINT LeftHandIndex3
											{
												OFFSET 2.45 0 0
												CHANNELS 3 Yrotation Xrotation Zrotation
												JOINT LeftHandIndex4
												{
													OFFSET 1.5225 0 0
													CHANNELS 3 Yrotation Xrotation Zrotation
													End Site
													{
														OFFSET -0 0 0
													}
												}
											}
										}
									}
									JOINT LeftHandMiddle1
									{
										OFFSET 8.93983 0 1.07882
										CHANNELS 3 Yrotation Xrotation Zrotation
										JOINT LeftHandMiddle2
										{
											OFFSET 4.6 0 0
											CHANNELS 3 Yrotation Xrotation Zrotation
											JOINT LeftHandMiddle3
											{
												OFFSET 3.22 0 0
												CHANNELS 3 Yrotation Xrotation Zrotation
												JOINT LeftHandMiddle4
												{
													OFFSET 2.001 0 0
													CHANNELS 3 Yrotation Xrotation Zrotation
													End Site
													{
														OFFSET -0 0 0
													}
												}
											}
										}
									}
									JOINT LeftHandRing1
									{
										OFFSET 8.64101 0 -1.31106
										CHANNELS 3 Yrotation Xrotation Zrotation
										JOINT LeftHandRing2
										{
											OFFSET 3.75 0 0
											CHANNELS 3 Yrotation Xrotation Zrotation
											JOINT LeftHandRing3
											{
												OFFSET 2.625 0 0
												CHANNELS 3 Yrotation Xrotation Zrotation
												JOINT LeftHandRing4
												{
													OFFSET 1.63125 0 0
													CHANNELS 3 Yrotation Xrotation Zrotation
													End Site
													{
														OFFSET -0 0 0
													}
												}
											}
										}
									}
									JOINT LeftHandPinky1
									{
										OFFSET 8.04219 0 -3.70094
										CHANNELS 3 Yrotation Xrotation Zrotation
										JOINT LeftHandPinky2
										{
											OFFSET 2.875 0 0
											CHANNELS 3 Yrotation Xrotation Zrotation
											JOINT LeftHandPinky3
											{
												OFFSET 2.0125 0 0
												CHANNELS 3 Yrotation Xrotation Zrotation
												JOINT LeftHandPinky4
												{
													OFFSET 1.25062 0 0
													CHANNELS 3 Yrotation Xrotation Zrotation
													End Site
													{
														OFFSET -0 0 0
													}
												}
											}
										}
									}
								}
							}
						}
					}
					JOINT RightShoulder
					{
						OFFSET -1.66809 3.17829 3.33619
						CHANNELS 3 Yrotation Xrotation Zrotation
						JOINT RightArm
						{
							OFFSET -18.653 0 0
							CHANNELS 3 Yrotation Xrotation Zrotation
							JOINT RightForeArm
							{
								OFFSET -22.9554 0 0
								CHANNELS 3 Yrotation Xrotation Zrotation
								JOINT RightHand
								{
									OFFSET -21.8677 0 0
									CHANNELS 3 Yrotation Xrotation Zrotation
									JOINT RightHandThumb1
									{
										OFFSET -4.93523 0 1.98499
										CHANNELS 3 Yrotation Xrotation Zrotation
										JOINT RightHandThumb2
										{
											OFFSET -3 0 1
											CHANNELS 3 Yrotation Xrotation Zrotation
											JOINT RightHandThumb3
											{
												OFFSET -2.1 0 0
												CHANNELS 3 Yrotation Xrotation Zrotation
												JOINT RightHandThumb4
												{
													OFFSET -1.305 0 0
													CHANNELS 3 Yrotation Xrotation Zrotation
													End Site
													{
														OFFSET -0 0 0
													}
												}
											}
										}
									}
									JOINT RightHandIndex1
									{
										OFFSET -9.43254 0 2.90277
										CHANNELS 3 Yrotation Xrotation Zrotation
										JOINT RightHandIndex2
										{
											OFFSET -3.5 0 0
											CHANNELS 3 Yrotation Xrotation Zrotation
											JOINT RightHandIndex3
											{
												OFFSET -2.45 0 0
												CHANNELS 3 Yrotation Xrotation Zrotation
												JOINT RightHandIndex4
												{
													OFFSET -1.5225 0 0
													CHANNELS 3 Yrotation Xrotation Zrotation
													End Site
													{
														OFFSET -0 0 0
													}
												}
											}
										}
									}
									JOINT RightHandMiddle1
									{
										OFFSET -9.35706 0 0.88564
										CHANNELS 3 Yrotation Xrotation Zrotation
										JOINT RightHandMiddle2
										{
											OFFSET -4.6 0 0
											CHANNELS 3 Yrotation Xrotation Zrotation
											JOINT RightHandMiddle3
											{
												OFFSET -3.22 0 0
												CHANNELS 3 Yrotation Xrotation Zrotation
												JOINT RightHandMiddle4
												{
													OFFSET -2.001 0 0
													CHANNELS 3 Yrotation Xrotation Zrotation
													End Site
													{
														OFFSET -0 0 0
													}
												}
											}
										}
									}
									JOINT RightHandRing1
									{
										OFFSET -8.98158 0 -1.13149
										CHANNELS 3 Yrotation Xrotation Zrotation
										JOINT RightHandRing2
										{
											OFFSET -3.75 0 0
											CHANNELS 3 Yrotation Xrotation Zrotation
											JOINT RightHandRing3
											{
												OFFSET -2.625 0 0
												CHANNELS 3 Yrotation Xrotation Zrotation
												JOINT RightHandRing4
												{
													OFFSET -1.63125 0 0
													CHANNELS 3 Yrotation Xrotation Zrotation
													End Site
													{
														OFFSET -0 0 0
													}
												}
											}
										}
									}
									JOINT RightHandPinky1
									{
										OFFSET -8.3061 0 -3.14863
										CHANNELS 3 Yrotation Xrotation Zrotation
										JOINT RightHandPinky2
										{
											OFFSET -2.875 0 0
											CHANNELS 3 Yrotation Xrotation Zrotation
											JOINT RightHandPinky3
											{
												OFFSET -2.0125 0 0
												CHANNELS 3 Yrotation Xrotation Zrotation
												JOINT RightHandPinky4
												{
													OFFSET -1.25062 0 0
													CHANNELS 3 Yrotation Xrotation Zrotation
													End Site
													{
														OFFSET -0 0 0
													}
												}
											}
										}
									}
								}
							}
						}
					}
				}
			}
		}
	}
	JOINT LeftUpLeg
	{
		OFFSET 10.0086 -3.33619 3
		CHANNELS 3 Yrotation Xrotation Zrotation
		JOINT LeftLeg
		{
			OFFSET -0 -43.585 2.33533
			CHANNELS 3 Yrotation Xrotation Zrotation
			JOINT LeftFoot
			{
				OFFSET -0 -36.8654 -2.33533
				CHANNELS 3 Yrotation Xrotation Zrotation
				JOINT LeftToeBase
				{
					OFFSET -0 -9.43469 9.49123
					CHANNELS 3 Yrotation Xrotation Zrotation
					End Site
					{
						OFFSET 0 0 5
					}
				}
			}
		}
	}
	JOINT RightUpLeg
	{
		OFFSET -10.0086 -3.33619 3
		CHANNELS 3 Yrotation Xrotation Zrotation
		JOINT RightLeg
		{
			OFFSET -0 -43.585 2.33533
			CHANNELS 3 Yrotation Xrotation Zrotation
			JOINT RightFoot
			{
				OFFSET -0 -36.8654 -2.33533
				CHANNELS 3 Yrotation Xrotation Zrotation
				JOINT RightToeBase
				{
					OFFSET -0 -9.43469 9.49123
					CHANNELS 3 Yrotation Xrotation Zrotation
					End Site
					{
						OFFSET 0 0 5
					}
				}
			}
		}
	}
}
MOTION
Frames: 7
Frame Time: 0.0047619
0 93.750966 0 0 0 0 0 0 0 0 0 0 0 0 0 0 0 0 0 0 0 0 0 0 0 0 0 0 0 0 0 0 0 0 0 0 0 0 0 0 0 0 0 0 0 0 0 0 0 0 0 0 0 0 0 0 0 0 0 0 0 0 0 0 0 0 0 0 0 0 0 0 0 0 0 0 0 0 0 0 0 0 0 0 0 0 0 0 0 0 0 0 0 0 0 0 0 0 0 0 0 0 0 0 0 0 0 0 0 0 0 0 0 0 0 0 0 0 0 0 0 0 0 0 0 0 0 0 0 0 0 0 0 0 0 0 0 0 0 0 0 0 0 0 0 0 0 0 0 0 0 0 0 0 0 0 0 0 0 0 0 0 0 0 0 0 0 0 0 0 0 0 0 0 0 0 0 0 0 0 0 0 0 0 0 0 0 0 0 0 0 0
-27.495703 93.386670 12.462280 0.924426 0.198596 1.240493 0.569862 0.352309 0.002800 0.491995 0.422553 -0.023587 0.297239 0.532478 -0.052302 0.222312 0.605870 -0.042187 -0.535698 -1.037127 -0.124573 -0.222016 0.300837 -1.210126 7.620612 1.619987 9.623694 -14.228971 -1.982325 -0.195556 -8.149968 -0.820660 1.533421 14.298135 2.570886 -31.770873 24.216723 -2.432586 -2.398274 27.862089 -2.702169 -2.839059 -47.672277 -6.973189 -2.065437 -0.000000 -0.000009 0.614882 -0.000000 -0.000009 0.614882 -0.000014 -0.000003 0.491904 -0.000003 0.000000 0.245952 -0.000000 -0.000003 0.158215 -0.000000 -0.000003 0.158215 -0.000007 -0.000007 0.126564 0.000003 -0.000002 0.063282 0.000004 0.000005 6.679871 0.000004 0.000005 6.679871 0.000007 0.000005 5.343886 -0.000001 0.000010 2.671953 0.000024 0.000010 1.244670 0.000024 0.000010 1.244670 -0.000003 0.000012 0.995739 0.000010 -0.000002 0.497859 -174.443316 -0.003292 -179.932160 -7.854488 3.059880 -9.734373 13.393211 -3.319197 -1.418324 7.883818 -1.397908 -1.406011 -10.844302 -1.329126 24.461571 8.326237 4.122217 -10.007026 9.512575 4.862361 -11.457642 -59.335855 33.860012 -3.454315 -0.000007 -0.000002 -12.500001 -0.000007 -0.000002 -12.500001 0.000002 0.000000 -10.000000 0.000001 -0.000002 -5.000002 -0.000007 -0.000002 -12.500001 -0.000007 -0.000002 -12.500001 0.000002 0.000000 -10.000000 0.000001 -0.000002 -5.000002 -0.000002 0.000007 29.118189 -0.000002 0.000007 29.118189 0.000005 0.000002 23.294567 -0.000000 -0.000001 11.647266 -0.000002 -0.000002 10.234563 -0.000002 -0.000002 10.234563 -0.000005 -0.000003 8.187656 0.000001 0.000001 4.093823 24.216723 -2.432586 -2.398274 6.098468 5.884490 3.763123 0.000000 0.456072 0.000000 2.286322 -0.784368 -0.777844 0.000000 -7.231869 0.000000 -8.542792 5.678181 -5.139955 0.000000 0.989050 0.000000 -6.229569 -2.755206 2.870745 0.000000 -6.002777 0.000000
-27.497491 93.386005 12.461082 0.934743 0.197755 1.229251 0.558876 0.349869 0.014599 0.481003 0.427784 -0.016692 0.310859 0.537621 -0.050326 0.236665 0.596049 -0.032539 -0.542566 -1.034689 -0.156815 -0.225175 0.305354 -1.192867 7.593274 1.626562 9.608658 -14.218402 -1.993912 -0.211981 -8.143456 -0.869702 1.523565 14.288810 2.632471 -31.741460 24.216723 -2.432586 -2.398274 27.862089 -2.702169 -2.839059 -47.672277 -6.973189 -2.065437 -0.000000 -0.000009 0.614882 -0.000000 -0.000009 0.614882 -0.000014 -0.000003 0.491904 -0.000003 0.000000 0.245952 -0.000000 -0.000003 0.158215 -0.000000 -0.000003 0.158215 -0.000007 -0.000007 0.126564 0.000003 -0.000002 0.063282 0.000004 0.000005 6.679871 0.000004 0.000005 6.679871 0.000007 0.000005 5.343886 -0.000001 0.000010 2.671953 0.000024 0.000010 1.244670 0.000024 0.000010 1.244670 -0.000003 0.000012 0.995739 0.000010 -0.000002 0.497859 -174.443316 -0.003292 -179.932160 -7.884157 3.064491 -9.761066 13.411098 -3.315645 -1.403102 7.887252 -1.413415 -1.406645 -10.855421 -1.324553 24.449993 8.326237 4.122217 -10.007026 9.512575 4.862361 -11.457642 -59.335855 33.860012 -3.454315 -0.000007 -0.000002 -12.500001 -0.000007 -0.000002 -12.500001 0.000002 0.000000 -10.000000 0.000001 -0.000002 -5.000002 -0.000007 -0.000002 -12.500001 -0.000007 -0.000002 -12.500001 0.000002 0.000000 -10.000000 0.000001 -0.000002 -5.000002 -0.000002 0.000007 29.118189 -0.000002 0.000007 29.118189 0.000005 0.000002 23.294567 -0.000000 -0.000001 11.647266 -0.000002 -0.000002 10.234563 -0.000002 -0.000002 10.234563 -0.000005 -0.000003 8.187656 0.000001 0.000001 4.093823 24.216723 -2.432586 -2.398274 6.083219 5.888553 3.771799 0.000000 0.443148 0.000000 2.281372 -0.786633 -0.737666 0.000000 -7.158773 0.000000 -8.571129 5.672610 -5.129652 0.000000 1.005468 0.000000 -6.223428 -2.781846 2.890543 0.000000 -5.983726 0.000000
-27.499597 93.387433 12.460207 0.923149 0.196721 1.232336 0.566220 0.343135 0.010846 0.488529 0.436729 -0.018939 0.303319 0.544273 -0.051372 0.229277 0.593981 -0.035583 -0.536937 -1.035776 -0.145754 -0.222609 0.290361 -1.191656 7.609199 1.601345 9.610555 -14.228028 -1.969085 -0.218129 -8.149640 -0.830328 1.515070 14.298309 2.591229 -31.743327 24.216723 -2.432586 -2.398274 27.862089 -2.702169 -2.839059 -47.672277 -6.973189 -2.065437 -0.000000 -0.000009 0.614882 -0.000000 -0.000009 0.614882 -0.000014 -0.000003 0.491904 -0.000003 0.000000 0.245952 -0.000000 -0.000003 0.158215 -0.000000 -0.000003 0.158215 -0.000007 -0.000007 0.126564 0.000003 -0.000002 0.063282 0.000004 0.000005 6.679871 0.000004 0.000005 6.679871 0.000007 0.000005 5.343886 -0.000001 0.000010 2.671953 0.000024 0.000010 1.244670 0.000024 0.000010 1.244670 -0.000003 0.000012 0.995739 0.000010 -0.000002 0.497859 -174.443316 -0.003292 -179.932160 -7.876165 3.056586 -9.741998 13.431159 -3.322006 -1.421017 7.863963 -1.399101 -1.383057 -10.843574 -1.332152 24.437434 8.326237 4.122217 -10.007026 9.512575 4.862361 -11.457642 -59.335855 33.860012 -3.454315 -0.000007 -0.000002 -12.500001 -0.000007 -0.000002 -12.500001 0.000002 0.000000 -10.000000 0.000001 -0.000002 -5.000002 -0.000007 -0.000002 -12.500001 -0.000007 -0.000002 -12.500001 0.000002 0.000000 -10.000000 0.000001 -0.000002 -5.000002 -0.000002 0.000007 29.118189 -0.000002 0.000007 29.118189 0.000005 0.000002 23.294567 -0.000000 -0.000001 11.647266 -0.000002 -0.000002 10.234563 -0.000002 -0.000002 10.234563 -0.000005 -0.000003 8.187656 0.000001 0.000001 4.093823 24.216723 -2.432586 -2.398274 6.078095 5.887891 3.772305 0.000000 0.448956 0.000000 2.286430 -0.774660 -0.764948 0.000000 -7.196299 0.000000 -8.556893 5.673666 -5.132097 0.000000 1.001317 0.000000 -6.219111 -2.756799 2.895890 0.000000 -5.990302 0.000000
-27.499115 93.386566 12.456881 0.931242 0.197233 1.227250 0.550866 0.363368 0.020103 0.473301 0.420262 -0.016895 0.322773 0.531172 -0.054787 0.248908 0.592410 -0.037439 -0.552060 -1.034173 -0.135675 -0.229205 0.314515 -1.209547 7.595486 1.598675 9.625186 -14.240673 -1.943554 -0.252898 -8.151878 -0.842674 1.526467 14.310290 2.591951 -31.743671 24.216723 -2.432586 -2.398274 27.862089 -2.702169 -2.839059 -47.672277 -6.973189 -2.065437 -0.000000 -0.000009 0.614882 -0.000000 -0.000009 0.614882 -0.000014 -0.000003 0.491904 -0.000003 0.000000 0.245952 -0.000000 -0.000003 0.158215 -0.000000 -0.000003 0.158215 -0.000007 -0.000007 0.126564 0.000003 -0.000002 0.063282 0.000004 0.000005 6.679871 0.000004 0.000005 6.679871 0.000007 0.000005 5.343886 -0.000001 0.000010 2.671953 0.000024 0.000010 1.244670 0.000024 0.000010 1.244670 -0.000003 0.000012 0.995739 0.000010 -0.000002 0.497859 -174.443316 -0.003292 -179.932160 -7.874934 3.060990 -9.753224 13.397620 -3.322705 -1.388205 7.909407 -1.384963 -1.406624 -10.872338 -1.337666 24.443241 8.326237 4.122217 -10.007026 9.512575 4.862361 -11.457642 -59.335855 33.860012 -3.454315 -0.000007 -0.000002 -12.500001 -0.000007 -0.000002 -12.500001 0.000002 0.000000 -10.000000 0.000001 -0.000002 -5.000002 -0.000007 -0.000002 -12.500001 -0.000007 -0.000002 -12.500001 0.000002 0.000000 -10.000000 0.000001 -0.000002 -5.000002 -0.000002 0.000007 29.118189 -0.000002 0.000007 29.118189 0.000005 0.000002 23.294567 -0.000000 -0.000001 11.647266 -0.000002 -0.000002 10.234563 -0.000002 -0.000002 10.234563 -0.000005 -0.000003 8.187656 0.000001 0.000001 4.093823 24.216723 -2.432586 -2.398274 6.077688 5.889779 3.774229 0.000000 0.434047 0.000000 2.318697 -0.770076 -0.768490 0.000000 -7.170294 0.000000 -8.584270 5.668165 -5.129615 0.000000 1.001615 0.000000 -6.197572 -2.749954 2.895823 0.000000 -6.023579 0.000000
-27.497458 93.388025 12.455661 0.930587 0.194546 1.221146 0.544783 0.356475 0.032134 0.467230 0.432780 -0.008529 0.322023 0.529934 -0.050257 0.248172 0.597257 -0.042068 -0.538933 -1.016289 -0.169407 -0.223580 0.276132 -1.188375 7.600832 1.618152 9.596747 -14.221260 -1.961793 -0.242458 -8.148651 -0.828324 1.531806 14.275943 2.588868 -31.770881 24.171796 -2.448310 -2.455305 27.810684 -2.718317 -2.904916 -47.651839 -6.867572 -2.060180 -0.000000 -0.000003 0.592609 -0.000000 -0.000003 0.592609 -0.000000 -0.000003 0.474101 0.000024 0.000007 0.237044 0.000014 -0.000003 0.161828 0.000014 -0.000003 0.161828 -0.000003 0.000005 0.129468 0.000000 -0.000003 0.064728 0.000014 0.000003 6.669572 0.000014 0.000003 6.669572 -0.000013 0.000001 5.335649 0.000014 -0.000001 2.667833 0.000014 -0.000000 1.229323 0.000014 -0.000000 1.229323 0.000010 -0.000000 0.983455 -0.000000 0.000003 0.491730 -174.443329 -0.003292 -179.932160 -7.874860 3.062860 -9.758939 13.427647 -3.292002 -1.398677 7.889454 -1.398762 -1.414329 -10.866453 -1.367285 24.449481 8.326708 4.123722 -10.003830 9.513110 4.864058 -11.453949 -59.346081 33.857523 -3.445039 -0.000000 0.000003 -12.500000 -0.000000 0.000003 -12.500000 0.000001 -0.000003 -9.999999 -0.000002 0.000001 -5.000002 -0.000000 0.000003 -12.500000 -0.000000 0.000003 -12.500000 0.000001 -0.000003 -9.999999 -0.000002 0.000001 -5.000002 0.000001 0.000004 29.188845 0.000001 0.000004 29.188845 -0.000001 0.000002 23.351078 0.000002 0.000002 11.675530 0.000000 0.000002 10.324728 0.000000 0.000002 10.324728 0.000005 0.000002 8.259790 -0.000003 -0.000002 4.129899 24.171796 -2.448310 -2.455305 6.062033 5.892516 3.777569 0.000000 0.431346 0.000000 2.318310 -0.779728 -0.741033 0.000000 -7.178186 0.000000 -8.566195 5.668261 -5.121640 0.000000 1.012697 0.000000 -6.207831 -2.744891 2.892847 0.000000 -5.997625 0.000000
-27.500687 93.389050 12.452802 0.927348 0.193920 1.226058 0.550063 0.365138 0.025128 0.473355 0.429985 -0.011861 0.312912 0.535242 -0.049604 0.239562 0.585845 -0.040091 -0.535028 -1.049570 -0.165587 -0.222035 0.330468 -1.192896 7.620982 1.620751 9.597960 -14.230548 -1.940573 -0.248370 -8.171359 -0.861760 1.520879 14.302054 2.595262 -31.751888 24.171796 -2.448310 -2.455305 27.810684 -2.718317 -2.904916 -47.651839 -6.867572 -2.060180 -0.000000 -0.000003 0.592609 -0.000000 -0.000003 0.592609 -0.000000 -0.000003 0.474101 0.000024 0.000007 0.237044 0.000014 -0.000003 0.161828 0.000014 -0.000003 0.161828 -0.000003 0.000005 0.129468 0.000000 -0.000003 0.064728 0.000014 0.000003 6.669572 0.000014 0.000003 6.669572 -0.000013 0.000001 5.335649 0.000014 -0.000001 2.667833 0.000014 -0.000000 1.229323 0.000014 -0.000000 1.229323 0.000010 -0.000000 0.983455 -0.000000 0.000003 0.491730 -174.443329 -0.003292 -179.932160 -7.876492 3.077535 -9.748436 13.452368 -3.317261 -1.410290 7.882295 -1.404139 -1.413968 -10.869323 -1.345865 24.450097 8.326708 4.123722 -10.003830 9.513110 4.864058 -11.453949 -59.346081 33.857523 -3.445039 -0.000000 0.000003 -12.500000 -0.000000 0.000003 -12.500000 0.000001 -0.000003 -9.999999 -0.000002 0.000001 -5.000002 -0.000000 0.000003 -12.500000 -0.000000 0.000003 -12.500000 0.000001 -0.000003 -9.999999 -0.000002 0.000001 -5.000002 0.000001 0.000004 29.188845 0.000001 0.000004 29.188845 -0.000001 0.000002 23.351078 0.000002 0.000002 11.675530 0.000000 0.000002 10.324728 0.000000 0.000002 10.324728 0.000005 0.000002 8.259790 -0.000003 -0.000002 4.129899 24.171796 -2.448310 -2.455305 6.069780 5.889551 3.776689 0.000000 0.439809 0.000000 2.313797 -0.796621 -0.767423 0.000000 -7.152292 0.000000 -8.568949 5.668599 -5.125530 0.000000 1.001350 0.000000 -6.218780 -2.739587 2.901009 0.000000 -6.029759 0.000000
